<svg width="362" height="185" viewBox="0 0 362 185" fill="none" xmlns="http://www.w3.org/2000/svg">
<path d="M179.91 131.76C146.87 131.76 113.36 122.82 82.9 105.86C52.07 88.7 24.97 63.61 4.51 33.32C-1.79 23.99 0.659993 11.31 9.98999 5.00996C19.32 -1.29004 32 1.15997 38.3 10.49C55.2 35.5 77.48 56.16 102.74 70.22C127.44 83.98 154.47 91.12 180.9 90.96H181.18C207.62 91.13 234.63 83.97 259.34 70.22C284.6 56.16 306.88 35.5 323.78 10.49C330.08 1.15997 342.76 -1.30004 352.09 5.00996C361.42 11.31 363.88 23.99 357.57 33.32C337.11 63.61 310 88.7 279.18 105.86C248.38 123.01 214.42 131.95 181.04 131.75C180.66 131.75 180.29 131.75 179.91 131.75V131.76Z" fill="#464646"/>
<path d="M295.96 95.49C290.51 99.21 284.91 102.67 279.18 105.86C272.98 109.31 266.66 112.42 260.24 115.2L283.22 153.8C287.03 160.21 293.81 163.76 300.76 163.76C304.31 163.76 307.9 162.83 311.17 160.89C320.85 155.13 324.02 142.61 318.26 132.94L295.96 95.5V95.49Z" fill="#464646"/>
<path d="M234.65 124.33C221.4 128.09 207.92 130.44 194.45 131.34L202.16 168.26C204.17 177.88 212.65 184.48 222.1 184.48C223.48 184.48 224.88 184.34 226.29 184.04C237.31 181.74 244.38 170.93 242.08 159.91L234.64 124.32L234.65 124.33Z" fill="#464646"/>
<path d="M127.51 124.36L120.08 159.92C117.78 170.94 124.85 181.75 135.87 184.05C137.28 184.34 138.68 184.49 140.06 184.49C149.51 184.49 157.99 177.88 160 168.27L167.71 131.36C154.24 130.47 140.76 128.12 127.51 124.37V124.36Z" fill="#464646"/>
<path d="M82.9 105.86C77.17 102.67 71.57 99.21 66.12 95.49L43.82 132.93C38.06 142.61 41.23 155.12 50.91 160.88C54.18 162.83 57.77 163.75 61.32 163.75C68.27 163.75 75.04 160.19 78.86 153.79L101.84 115.2C95.42 112.42 89.1 109.31 82.9 105.86Z" fill="#464646"/>
</svg>
